<svg xmlns="http://www.w3.org/2000/svg" id="Layer_1" width="256" height="256" data-name="Layer 1" viewBox="0 0 256 256"><path d="M128 2l109.1 63v126L128 254 18.9 191V65L128 2z"/><path fill="#fff" d="M68.2 174.6a2 2 0 0 1-2.1-2.1v-25H38.8a2.1 2.1 0 0 1 0-4.1h15.5v-13.5a2 2 0 0 1 2.1-2.1h8.1a65.6 65.6 0 0 1 63.3-50.3c.2-.2.4-.2.8 0 30.6.2 56.1 21.7 62.9 50.3h8.1a2 2 0 0 1 2.1 2.1v13.5h15.5a2.1 2.1 0 1 1 0 4.1h-27.3v25a2 2 0 0 1-2.1 2.1zM58.5 132v11.4h139v-11.5zm65.4-50.1c-26.5 1.7-48.6 20.9-55 45.9H91zm-53.6 65.5v23H126v-23zM125.9 86l-29.8 41.8h29.8zm4.1-4.3v46.1h57.1a61.5 61.5 0 0 0-57-46.2zm0 65.8v23h9.3v-23zm13.5 0v23h42.2v-23z"/></svg>