<svg xmlns="http://www.w3.org/2000/svg" id="Layer_1" width="256" height="256" data-name="Layer 1" viewBox="0 0 256 256"><path d="M97.8 149.5H84.1L65.9 171l2.9 4.2 35-18.4-6-7.3zm-25.3-14.9h113.2v10.76H72.5zm99-4.1a50 50 0 0 0 2.5-15.7 44.8 44.8 0 0 0-89.6 0c0 5.4.4 11 2.5 15.7zM87 170.4h28.2l-8.5-10.3L87 170.4zm71.2-20.9l-6.2 7.3 35.2 18.4 2.9-4-18.2-21.7h-13.7z"/><path d="M128 2L18.9 65v126L128 254l109.1-63V65zm66.2 170.3l-4.8 6.8a2.2 2.2 0 0 1-2.7.6l-9.9-5.2H79l-10 5.2a2.3 2.3 0 0 1-2.7-.6l-4.8-6.8a2.2 2.2 0 0 1 .2-2.5L79 149.5h-8.5a2 2 0 0 1-2.1-2.1v-14.9a2 2 0 0 1 2.1-2.1h12a57.8 57.8 0 0 1-2.3-15.7 48.9 48.9 0 0 1 97.9 0 50.8 50.8 0 0 1-2.3 15.7h12a2 2 0 0 1 2.1 2.1v14.9a2 2 0 0 1-2.1 2.1h-10.6l17 20.3a2.2 2.2 0 0 1 0 2.5z"/><path d="M140.8 170.4H169l-19.7-10.3-8.5 10.3zm-37.6-20.9l17.3 20.9h14.9l17.4-20.9h-49.6z"/></svg>