<svg xmlns="http://www.w3.org/2000/svg" id="Layer_1" width="256" height="256" data-name="Layer 1" viewBox="0 0 256 256"><path d="M125.9 127.8V86l-29.8 41.8h29.8zm-55.6 19.6H126v22.97H70.3zm59.8-65.8v46.1h57.1a61.5 61.5 0 0 0-57.1-46.1zm0 65.8h9.3v22.97h-9.3zm-6.2-65.6c-26.5 1.7-48.6 20.9-55 45.9H91zm19.6 65.6h42.2v22.97h-42.2z"/><path d="M128 2L18.9 65v126L128 254l109.1-63V65zm89.2 145.4h-27.3v25a2 2 0 0 1-2.1 2.1H68.2a2 2 0 0 1-2.1-2.1v-25H38.8a2.1 2.1 0 0 1 0-4.1h15.5v-13.4a2 2 0 0 1 2.1-2.1h8.1a65.6 65.6 0 0 1 63.3-50.3c.2-.2.4-.2.8 0 30.6.2 56.1 21.7 62.9 50.3h8.1a2 2 0 0 1 2.1 2.1v13.5h15.5a2.1 2.1 0 1 1 0 4.1z"/><path d="M58.5 131.9h139.1v11.38H58.5z"/></svg>